<svg width="16" height="16" viewBox="0 0 16 16" fill="none" xmlns="http://www.w3.org/2000/svg">
<path d="M7.99992 9.44667C6.57992 9.44667 5.41992 8.29334 5.41992 6.86667C5.41992 5.44 6.57992 4.29333 7.99992 4.29333C9.41992 4.29333 10.5799 5.44667 10.5799 6.87334C10.5799 8.3 9.41992 9.44667 7.99992 9.44667ZM7.99992 5.29333C7.13326 5.29333 6.41992 6 6.41992 6.87334C6.41992 7.74667 7.12659 8.45334 7.99992 8.45334C8.87326 8.45334 9.57992 7.74667 9.57992 6.87334C9.57992 6 8.86659 5.29333 7.99992 5.29333Z" fill="#8F90A6"/>
<path d="M8.00109 15.1734C7.01443 15.1734 6.02109 14.8 5.24776 14.06C3.28109 12.1667 1.10776 9.14671 1.92776 5.55337C2.66776 2.29337 5.51443 0.833374 8.00109 0.833374C8.00109 0.833374 8.00109 0.833374 8.00776 0.833374C10.4944 0.833374 13.3411 2.29337 14.0811 5.56004C14.8944 9.15337 12.7211 12.1667 10.7544 14.06C9.98109 14.8 8.98776 15.1734 8.00109 15.1734ZM8.00109 1.83337C6.06109 1.83337 3.56776 2.86671 2.90776 5.77337C2.18776 8.91337 4.16109 11.62 5.94776 13.3334C7.10109 14.4467 8.90776 14.4467 10.0611 13.3334C11.8411 11.62 13.8144 8.91337 13.1078 5.77337C12.4411 2.86671 9.94109 1.83337 8.00109 1.83337Z" fill="#8F90A6"/>
</svg>
