<svg width="136" height="133" viewBox="0 0 136 133" fill="none" xmlns="http://www.w3.org/2000/svg">
<path d="M68.0036 130.007C103.904 130.007 133.007 100.904 133.007 65.0036C133.007 29.1031 103.904 0 68.0036 0C32.1031 0 3 29.1031 3 65.0036C3 100.904 32.1031 130.007 68.0036 130.007Z" fill="white"/>
<mask id="path-2-outside-1_1070_4699" maskUnits="userSpaceOnUse" x="0" y="64" width="136" height="69" fill="black">
<rect fill="white" y="64" width="136" height="69"/>
<path fill-rule="evenodd" clip-rule="evenodd" d="M3 66C3.53255 101.441 32.4283 130.007 67.9961 130.007C103.564 130.007 132.46 101.441 132.992 66H3Z"/>
</mask>
<path fill-rule="evenodd" clip-rule="evenodd" d="M3 66C3.53255 101.441 32.4283 130.007 67.9961 130.007C103.564 130.007 132.46 101.441 132.992 66H3Z" fill="white"/>
<path d="M3 66V64H0.969722L1.00023 66.03L3 66ZM132.992 66L134.992 66.03L135.023 64H132.992V66ZM1.00023 66.03C1.54917 102.562 31.3338 132.007 67.9961 132.007V128.007C33.5228 128.007 5.51593 100.32 4.99977 65.97L1.00023 66.03ZM67.9961 132.007C104.658 132.007 134.443 102.562 134.992 66.03L130.992 65.97C130.476 100.32 102.469 128.007 67.9961 128.007V132.007ZM132.992 64H3V68H132.992V64Z" fill="#555770" mask="url(#path-2-outside-1_1070_4699)"/>
<path d="M34.9526 24.1416L59.2459 60.119L59.3398 60.2491L61.5076 63.4935L15.2622 65.5601V64.917C15.2552 57.0752 17.0229 49.3335 20.4329 42.272C23.8429 35.2104 28.8068 29.0122 34.9526 24.1416V24.1416Z" stroke="#383938" stroke-width="0.1" stroke-miterlimit="10"/>
<path d="M119.394 65.5672L72.05 63.4933L74.2178 60.4296L74.4707 60.0538L99.5588 24.0042C105.754 28.872 110.762 35.0847 114.203 42.1725C117.644 49.2603 119.429 57.0378 119.423 64.9168L119.394 65.5672Z" stroke="#383938" stroke-width="0.1" stroke-miterlimit="10"/>
<path d="M61.5365 63.4935L15.2911 65.5601V64.917C15.2806 57.0776 17.0439 49.3374 20.4488 42.276C23.8537 35.2146 28.8121 29.0151 34.9526 24.1416L59.2459 60.119L59.3398 60.2491L61.5365 63.4935Z" fill="#202121"/>
<path d="M119.394 64.9168V65.5672L72.05 63.4933L74.2178 60.4296L74.4707 60.0538L99.5588 24.0042C105.749 28.8749 110.751 35.0889 114.187 42.1766C117.623 49.2642 119.404 57.0402 119.394 64.9168Z" fill="#202121"/>
<path d="M126.215 71.0082C125.273 80.2791 122.157 89.1971 117.121 97.0378C112.086 104.878 105.271 111.421 97.2322 116.134L92.716 118.54C84.6377 122.371 75.7984 124.33 66.8576 124.268C57.9168 124.207 49.1052 122.128 41.0802 118.186L36.5785 115.722C28.7196 110.971 22.0724 104.459 17.1617 96.6991C12.251 88.9393 9.21112 80.1443 8.2821 71.0082L12.7838 70.8059C13.6713 79.162 16.4701 87.2018 20.9634 94.3027C25.4568 101.404 31.5241 107.375 38.6957 111.755L43.1974 114.226C50.5695 117.817 58.6523 119.711 66.8524 119.77C75.0524 119.829 83.1615 118.051 90.5844 114.566L95.1078 112.167C102.461 107.825 108.696 101.823 113.316 94.6416C117.935 87.4599 120.811 79.2973 121.713 70.8059L126.215 71.0082Z" fill="#202121"/>
<path d="M12.5092 65.0035C12.5092 65.2275 12.5092 65.4587 12.5092 65.6827L8.02197 65.885C8.02197 65.596 8.02197 65.2997 8.02197 65.0035C8.00885 55.9679 10.0651 47.0494 14.0332 38.9317C18.0012 30.814 23.7755 23.7129 30.9134 18.1729L33.4642 21.9086C26.929 27.0298 21.6457 33.5718 18.015 41.0386C14.3843 48.5053 12.5014 56.7008 12.5092 65.0035Z" fill="#202121"/>
<path d="M126.518 65.0035C126.518 65.2997 126.518 65.596 126.518 65.885L122.031 65.6899C122.031 65.4587 122.031 65.2275 122.031 64.9674C122.039 56.6536 120.15 48.4477 116.509 40.9737C112.868 33.4998 107.57 26.9547 101.018 21.8363L103.555 18.1729C110.707 23.7044 116.496 30.8021 120.477 38.9204C124.458 47.0387 126.525 55.9617 126.518 65.0035Z" fill="#202121"/>
<path d="M99.3999 15.2032L96.8853 18.9317C88.0466 13.2561 77.7635 10.2388 67.2594 10.2388C56.7553 10.2388 46.4722 13.2561 37.6335 18.9317L35.1116 15.2032C44.6961 9.01927 55.8604 5.73022 67.2666 5.73022C78.6728 5.73022 89.8371 9.01927 99.4216 15.2032H99.3999Z" fill="#202121"/>
<path d="M67.1943 44.8653C58.4222 44.3739 58.1837 36.0064 58.1837 36.0064C59.7058 36.85 61.4433 37.2246 63.1778 37.0832C64.9122 36.9418 66.5661 36.2906 67.9314 35.2116C68.0254 35.138 68.1271 35.075 68.2349 35.0237C72.0357 33.2172 74.4852 34.4528 75.5908 35.3344C75.8108 35.5072 75.9776 35.7385 76.0722 36.0018C76.1668 36.265 76.1852 36.5496 76.1255 36.8229C74.3696 45.0315 67.1943 44.8653 67.1943 44.8653Z" fill="#202121"/>
<path d="M95.4112 21.0849L91.3936 27.0318L89.038 30.5363L88.8718 30.7748L69.9835 58.9122C69.8519 59.1072 69.6612 59.2547 69.4395 59.3332C69.2178 59.4117 68.9768 59.417 68.7519 59.3482C68.5269 59.2794 68.33 59.1403 68.1901 58.9512C68.0502 58.7622 67.9747 58.5332 67.9747 58.298V49.7643C67.9747 49.7643 67.6062 47.9939 71.2913 45.9563C71.2913 45.9563 80.0563 42.459 78.1414 32.2272C78.1414 32.2272 77.5778 25.8323 74.4635 21.7352C74.3962 21.6432 74.3081 21.5684 74.2064 21.5169C74.1047 21.4654 73.9922 21.4387 73.8782 21.439H60.5176C60.4036 21.4387 60.2911 21.4654 60.1894 21.5169C60.0877 21.5684 59.9996 21.6432 59.9323 21.7352C56.818 25.8323 56.2544 32.2272 56.2544 32.2272C54.3395 42.4373 63.1045 45.9563 63.1045 45.9563C66.7896 47.9939 66.4211 49.7643 66.4211 49.7643V58.2835C66.4196 58.5181 66.3429 58.746 66.2025 58.9339C66.062 59.1218 65.8651 59.2598 65.6405 59.3276C65.4159 59.3955 65.1756 59.3896 64.9546 59.311C64.7336 59.2323 64.5435 59.085 64.4123 58.8905L45.8853 31.2445L39.093 21.1283C47.4865 15.7209 57.257 12.8393 67.2415 12.8265C77.226 12.8136 87.0038 15.6702 95.4112 21.056V21.0849Z" fill="#202121"/>
<path d="M45.5963 59.8733C47.7992 59.8733 49.585 58.0875 49.585 55.8847C49.585 53.6818 47.7992 51.896 45.5963 51.896C43.3935 51.896 41.6077 53.6818 41.6077 55.8847C41.6077 58.0875 43.3935 59.8733 45.5963 59.8733Z" fill="white"/>
<path d="M33.4713 43.4273C35.6742 43.4273 37.46 41.6415 37.46 39.4386C37.46 37.2357 35.6742 35.45 33.4713 35.45C31.2684 35.45 29.4827 37.2357 29.4827 39.4386C29.4827 41.6415 31.2684 43.4273 33.4713 43.4273Z" fill="white"/>
<path d="M24.9887 58.9773C27.1915 58.9773 28.9773 57.1915 28.9773 54.9887C28.9773 52.7858 27.1915 51 24.9887 51C22.7858 51 21 52.7858 21 54.9887C21 57.1915 22.7858 58.9773 24.9887 58.9773Z" fill="white"/>
<path d="M88.7201 59.8733C90.923 59.8733 92.7088 58.0875 92.7088 55.8847C92.7088 53.6818 90.923 51.896 88.7201 51.896C86.5172 51.896 84.7314 53.6818 84.7314 55.8847C84.7314 58.0875 86.5172 59.8733 88.7201 59.8733Z" fill="white"/>
<path d="M100.838 43.4273C103.041 43.4273 104.826 41.6415 104.826 39.4386C104.826 37.2357 103.041 35.45 100.838 35.45C98.6349 35.45 96.8491 37.2357 96.8491 39.4386C96.8491 41.6415 98.6349 43.4273 100.838 43.4273Z" fill="white"/>
<path d="M108.859 59.2156C111.061 59.2156 112.847 57.4298 112.847 55.2269C112.847 53.0241 111.061 51.2383 108.859 51.2383C106.656 51.2383 104.87 53.0241 104.87 55.2269C104.87 57.4298 106.656 59.2156 108.859 59.2156Z" fill="white"/>
<path d="M76.0966 36.8229C74.3407 45.0315 67.1654 44.8653 67.1654 44.8653C58.4222 44.3739 58.1837 36.0064 58.1837 36.0064C59.7058 36.85 61.4433 37.2246 63.1778 37.0832C64.9122 36.9418 66.5661 36.2906 67.9314 35.2116C68.0254 35.138 68.1271 35.075 68.2349 35.0237C72.0357 33.2172 74.4852 34.4528 75.5908 35.3344C75.8056 35.5106 75.9668 35.7434 76.0562 36.0064C76.1456 36.2695 76.1596 36.5523 76.0966 36.8229Z" fill="white"/>
<path d="M76.0966 36.8229C74.3407 45.0315 67.1654 44.8653 67.1654 44.8653C58.4222 44.3739 58.1837 36.0064 58.1837 36.0064C59.7058 36.85 61.4433 37.2246 63.1778 37.0832C64.9122 36.9418 66.5661 36.2906 67.9314 35.2116C68.0254 35.138 68.1271 35.075 68.2349 35.0237C72.0357 33.2172 74.4852 34.4528 75.5908 35.3344C75.8056 35.5106 75.9668 35.7434 76.0562 36.0064C76.1456 36.2695 76.1596 36.5523 76.0966 36.8229Z" fill="#CE2D38"/>
<path d="M36.4195 80.7633V78.2053H48.7612V80.7633H43.8838V93.8204H41.3258V80.7633H36.4195Z" fill="#202121"/>
<path d="M49.8884 82.9744H52.5764L54.6213 89.9401L56.5868 82.9744H58.9279L60.9223 89.9401L62.9599 82.9744H65.648L62.2879 93.8131H59.5638L57.7863 88.0325L55.987 93.8131H53.2557L49.8884 82.9744Z" fill="#202121"/>
<path d="M70.2364 77.9883C70.5406 77.9855 70.8388 78.0733 71.0929 78.2405C71.347 78.4077 71.5456 78.6468 71.6633 78.9273C71.781 79.2078 71.8126 79.517 71.7539 79.8155C71.6953 80.114 71.5491 80.3883 71.334 80.6034C71.1189 80.8185 70.8446 80.9647 70.5461 81.0233C70.2476 81.082 69.9384 81.0504 69.6579 80.9327C69.3775 80.8149 69.1384 80.6164 68.9711 80.3622C68.8039 80.1081 68.7161 79.81 68.719 79.5058C68.7209 79.1039 68.8814 78.7191 69.1655 78.4349C69.4497 78.1507 69.8346 77.9902 70.2364 77.9883ZM68.9575 93.8202V82.9814H71.5154V93.8202H68.9575Z" fill="#202121"/>
<path d="M75.8726 93.8202V82.9814H78.4305V84.1159C78.8506 83.6768 79.3553 83.3275 79.9142 83.0891C80.4731 82.8506 81.0745 82.728 81.6821 82.7285C84.2039 82.7285 85.9381 84.5061 85.9381 87.2591V93.7624H83.3802V87.7722C83.3802 85.9512 82.4191 85.1058 81.0535 85.1058C80.6923 85.1017 80.3343 85.1729 80.0022 85.3147C79.67 85.4566 79.3711 85.666 79.1243 85.9298C78.8776 86.1935 78.6885 86.5057 78.569 86.8466C78.4496 87.1874 78.4024 87.5494 78.4305 87.9094V93.7624L75.8726 93.8202Z" fill="#202121"/>
<path d="M90.989 90.4385C91.8971 91.2342 93.0553 91.6867 94.2623 91.7175C95.3462 91.7175 96.1916 91.2622 96.1916 90.6769C96.1916 89.7665 94.8259 89.4847 94.0238 89.2318C92.2463 88.7332 89.8401 88.2057 89.8401 85.8862C89.8401 84.0436 91.6393 82.7213 94.0889 82.7213C95.6782 82.705 97.2192 83.2675 98.4244 84.3038L96.9792 86.038C96.1616 85.3785 95.1392 85.0258 94.0889 85.0408C92.9616 85.0408 92.4197 85.431 92.4197 85.9079C92.4197 86.4932 93.5036 86.7316 94.6742 87.0134C96.8419 87.512 98.7568 88.2707 98.7568 90.6264C98.7568 92.5773 96.8203 94.0081 94.1973 94.0081C92.4448 94.0182 90.7546 93.3592 89.4716 92.1655L90.989 90.4385Z" fill="#202121"/>
<rect x="3" y="64" width="130" height="2" fill="white"/>
</svg>
