<svg width="212" height="42" viewBox="0 0 212 42" fill="none" xmlns="http://www.w3.org/2000/svg">
<path fill-rule="evenodd" clip-rule="evenodd" d="M19.6592 0.0383781C16.6817 0.212957 13.6719 1.07624 10.9924 2.52431C5.80054 5.3302 1.97004 10.2781 0.589723 15.9614C0.151873 17.7642 0 19.0622 0 21.0014C0 22.5073 0.0574136 23.2333 0.283587 24.5865C0.577877 26.347 1.20293 28.3254 1.99087 29.9901C3.65312 33.502 6.36096 36.5783 9.64153 38.6818C14.5644 41.8384 20.4759 42.7844 26.2585 41.341C28.6273 40.7498 31.2742 39.5049 33.2982 38.0303C37.2936 35.1192 40.1108 30.987 41.348 26.2231C41.805 24.4632 41.9688 23.0857 41.9688 21.0014C41.9688 19.3289 41.9053 18.5502 41.6573 17.1824C41.019 13.6616 39.3486 10.1443 37.0184 7.41434C36.5071 6.81542 35.3296 5.62786 34.7271 5.1035C33.5 4.03572 31.9868 3.02539 30.4405 2.24161C27.1343 0.5657 23.4629 -0.184574 19.6592 0.0383781ZM22.6532 1.93433C25.1076 2.19204 27.4908 2.89752 29.526 3.96874C30.0734 4.2569 30.8291 4.68961 31.0825 4.85998C31.1376 4.89697 31.0709 5.03071 30.777 5.47241C30.5701 5.78317 30.3833 6.05699 30.3617 6.08083C30.3402 6.10473 30.1043 5.99266 29.8375 5.8318C27.9137 4.67204 25.5998 3.84009 23.4018 3.5178C19.7425 2.98128 16.0907 3.55807 12.8414 5.18581C12.4344 5.38974 11.8929 5.68356 11.6381 5.83876C11.3833 5.99396 11.1575 6.10219 11.1363 6.07922C11.0507 5.98663 10.3588 4.95262 10.3588 4.91734C10.3588 4.85873 11.1847 4.37547 12.0474 3.92925C14.0702 2.88303 16.3876 2.19786 18.7901 1.93573C19.6899 1.83753 21.7246 1.8368 22.6532 1.93433ZM22.7767 4.26656C25.0414 4.5394 27.1733 5.24462 29.1482 6.37429C29.4589 6.55204 29.7443 6.72709 29.7823 6.76325C29.8393 6.81744 29.5587 7.26418 28.1942 9.29096C26.3991 11.9575 24.495 14.7916 22.7354 17.4163C22.1223 18.3307 21.584 19.1082 21.5393 19.1439C21.4107 19.2465 21.2245 19.22 21.0836 19.0791L20.9539 18.9494L20.969 17.3775L20.9842 15.8056L21.1193 15.6101C21.2999 15.3488 21.7873 14.9741 22.3172 14.6891C22.6357 14.5178 22.876 14.3317 23.2228 13.9877C23.6217 13.592 23.7326 13.4429 23.9383 13.0258C24.3518 12.1878 24.4269 11.4683 24.2301 10.2322C24.0102 8.85077 23.5455 7.57759 23.0738 7.06362L22.9664 6.94671H20.7157H18.4649L18.3037 7.16754C17.7982 7.86024 17.4152 8.97697 17.2138 10.3456C17.0944 11.1569 17.0885 11.5359 17.1869 12.0503C17.4125 13.2295 18.1132 14.1428 19.2696 14.7647C19.7991 15.0495 20.1665 15.3408 20.339 15.6128L20.4906 15.8519V17.4226V18.9934L20.3537 19.1011C20.1777 19.2396 20.06 19.2372 19.8998 19.0919C19.8289 19.0276 19.2001 18.1216 18.5026 17.0785C15.6595 12.8275 11.9962 7.37334 11.8324 7.14758C11.7363 7.01514 11.6577 6.88151 11.6577 6.85054C11.6577 6.77697 12.4445 6.31615 13.2944 5.89197C15.2889 4.8965 17.2922 4.3618 19.7372 4.17226C20.2583 4.13184 22.1441 4.19039 22.7767 4.26656ZM9.41874 6.47197L9.8317 7.08835L9.43277 7.41075C8.45996 8.19698 7.17317 9.57963 6.36278 10.7095C4.36801 13.4907 3.26738 16.667 3.08599 20.1659C3.05648 20.7351 3.02463 21.2086 3.01523 21.218C3.00582 21.2274 2.6748 21.2506 2.27971 21.2696L1.56134 21.304L1.5934 20.3474C1.77774 14.8507 4.26076 9.80352 8.54023 6.22668C8.78314 6.02368 8.98728 5.8571 8.99382 5.85658C9.00042 5.85606 9.19163 6.13295 9.41874 6.47197ZM33.7567 6.9371C35.9916 8.95655 37.9376 11.9393 38.8819 14.7924C39.3103 16.0868 39.543 17.0441 39.7144 18.217C39.8157 18.9106 39.9215 20.3108 39.9224 20.9704L39.9229 21.3032L39.2128 21.2692C38.8222 21.2504 38.4958 21.2283 38.4874 21.2199C38.4791 21.2115 38.4485 20.7676 38.4195 20.2334C38.215 16.4695 37.0404 13.234 34.8024 10.2701C34.1104 9.35362 32.8704 8.06345 32.0382 7.39392C31.8311 7.22724 31.6621 7.07599 31.6628 7.05775C31.6635 7.03956 31.8518 6.76065 32.0813 6.43799L32.4986 5.85139L32.8205 6.11663C32.9975 6.26253 33.4188 6.63174 33.7567 6.9371ZM31.7443 8.20373C31.9756 8.39686 32.4909 8.88942 32.8894 9.29839C35.3038 11.7763 36.8995 14.9977 37.4278 18.4607C37.5411 19.2031 37.6725 21.1129 37.6143 21.171C37.5956 21.1897 35.8686 21.1285 33.7766 21.035C31.6846 20.9415 28.722 20.8092 27.1932 20.7409C25.6643 20.6726 23.9509 20.6006 23.3857 20.5808C22.8205 20.5611 22.3477 20.5282 22.3351 20.5078C22.3111 20.4689 22.4828 20.2111 23.5814 18.6373C23.9505 18.1086 24.4067 17.4539 24.5954 17.1824C24.8894 16.7595 25.6602 15.6525 27.5079 12.9998C27.7268 12.6855 28.4109 11.7035 29.028 10.8176C29.6452 9.9317 30.3791 8.87576 30.659 8.47101C31.0823 7.85899 31.1811 7.745 31.2459 7.79389C31.2887 7.82621 31.513 8.01066 31.7443 8.20373ZM10.9904 8.77823C11.3385 9.29974 12.3518 10.802 13.242 12.1165C14.1322 13.4311 15.2229 15.0444 15.6656 15.7016C16.1083 16.3589 17.0127 17.6961 17.6752 18.6731C18.3378 19.6502 18.8799 20.4708 18.8799 20.4967C18.8799 20.5227 18.4298 20.5598 17.8797 20.579C16.8692 20.6145 13.9603 20.744 7.78684 21.0282C5.92934 21.1137 4.29506 21.1836 4.15508 21.1834L3.90054 21.1832L3.93738 20.3908C4.11949 16.4699 5.46785 12.9838 7.92469 10.082C8.56959 9.32026 10.1308 7.83717 10.2931 7.83203C10.3285 7.83094 10.6422 8.25673 10.9904 8.77823ZM23.1259 11.2117C23.5979 11.4529 23.6988 11.623 23.6112 12.0299C23.5764 12.1919 23.4427 12.5432 23.3142 12.8107C22.8864 13.7012 22.1491 14.2734 21.1844 14.4635C20.7998 14.5392 20.7199 14.5394 20.2801 14.4652C19.3033 14.3005 18.5772 13.772 18.1599 12.9219C17.965 12.5249 17.7324 11.7139 17.7955 11.6509C17.8091 11.6373 17.9981 11.6952 18.2155 11.7796C19.1518 12.1431 19.793 12.0399 21.0665 11.3207C21.4636 11.0964 21.8865 10.9987 22.375 11.0182C22.7132 11.0317 22.8351 11.0631 23.1259 11.2117ZM112.846 11.2965C112.76 11.3084 112.505 11.3648 112.279 11.4218C109.697 12.0731 108.606 14.6982 109.873 17.2119C109.975 17.4139 110.188 17.774 110.348 18.0122C110.507 18.2504 110.637 18.4593 110.637 18.4764C110.636 18.4934 110.51 18.5619 110.356 18.6285C109.879 18.835 109.122 19.3597 108.736 19.752C107.897 20.6033 107.519 21.6427 107.59 22.8978C107.628 23.5626 107.723 23.9373 107.992 24.4869C108.607 25.7412 109.787 26.525 111.599 26.8818C112.242 27.0083 113.894 27.0096 114.561 26.884C115.577 26.6926 116.556 26.3208 117.305 25.8413C117.469 25.737 117.619 25.6516 117.641 25.6516C117.662 25.6516 118.041 26.014 118.483 26.4569C118.926 26.8999 119.313 27.2623 119.345 27.2623C119.402 27.2623 120.882 25.6878 120.919 25.5879C120.929 25.5592 120.584 25.181 120.151 24.7475L119.364 23.9593L119.649 23.415C119.805 23.1156 120.015 22.6254 120.114 22.3257C120.303 21.759 120.5 20.6332 120.424 20.5568C120.378 20.511 118.224 20.1262 118.192 20.158C118.182 20.1681 118.151 20.3393 118.123 20.5386C118.064 20.9506 117.907 21.4895 117.725 21.9007L117.601 22.1811L116.046 20.656L114.49 19.1309L114.655 19.0558C115.227 18.7955 115.981 18.4064 116.237 18.24C116.669 17.9583 117.337 17.2646 117.531 16.8967C117.834 16.3195 117.935 15.8843 117.933 15.1561C117.931 14.4148 117.845 14.0007 117.568 13.3944C117.072 12.3116 116.033 11.5773 114.656 11.3372C114.246 11.2657 113.231 11.2429 112.846 11.2965ZM145.584 11.3639C145.285 11.4807 145.028 11.7115 144.835 12.0386C144.712 12.2455 144.696 12.3263 144.697 12.74C144.697 13.1191 144.718 13.2475 144.809 13.4178C144.947 13.6773 145.339 14.0449 145.596 14.1559C145.893 14.2847 146.461 14.2677 146.749 14.1213C147.716 13.6279 147.935 12.4386 147.194 11.6975C146.766 11.2697 146.151 11.1423 145.584 11.3639ZM195.765 11.3401C195.032 11.6109 194.633 12.5089 194.915 13.2554C195.144 13.8605 195.667 14.2348 196.29 14.2401C196.713 14.2436 196.964 14.1469 197.269 13.8627C197.623 13.5333 197.77 13.2034 197.77 12.74C197.769 12.1576 197.473 11.6661 196.966 11.4021C196.694 11.2607 196.068 11.2284 195.765 11.3401ZM9.40523 11.5204C8.92638 11.6639 8.54023 12.2034 8.54023 12.7288C8.54023 13.0545 8.64508 13.324 8.87209 13.5819C9.14294 13.8896 9.41126 14.0104 9.82676 14.0119C10.4147 14.0139 10.8976 13.661 11.0614 13.1096C11.1571 12.787 11.1572 12.6929 11.0617 12.3728C10.8597 11.6957 10.1091 11.3094 9.40523 11.5204ZM31.1659 11.5223C30.944 11.5869 30.5878 11.9062 30.4533 12.1611C30.2954 12.4603 30.2944 13.018 30.4513 13.3151C30.5943 13.5859 30.9185 13.8787 31.1659 13.9604C31.4876 14.0666 32.0252 14.0093 32.2782 13.8419C33.1245 13.2818 33.0732 12.0607 32.1844 11.6099C31.8873 11.4593 31.498 11.4258 31.1659 11.5223ZM59.9267 19.1049V26.7427H61.1737H62.4207V24.3526V21.9626H64.4614C65.5838 21.9626 66.6962 21.9383 66.9334 21.9085C69.5526 21.5801 71.3355 19.2717 71.1856 16.4031C71.1203 15.1544 70.7882 14.2127 70.0815 13.2725C69.6576 12.7086 69.125 12.2793 68.4148 11.929C67.4817 11.4687 67.4799 11.4685 63.4209 11.4677L59.9267 11.4671V19.1049ZM87.5164 19.1049V26.7427H88.7634H90.0104V26.1279C90.0104 25.7897 90.0256 25.4979 90.0442 25.4793C90.0628 25.4606 90.2454 25.6029 90.45 25.7953C91.6279 26.9031 93.3038 27.2347 94.9587 26.6874C95.7938 26.4113 96.3621 26.0622 96.9769 25.4477C97.6823 24.7427 98.1364 23.9406 98.4154 22.9067C98.5391 22.4481 98.5509 22.318 98.5509 21.417C98.5509 20.5104 98.5395 20.3874 98.4117 19.9102C97.7886 17.5844 95.9342 16.0411 93.5949 15.9016C92.4547 15.8336 91.258 16.2614 90.3939 17.0461C90.219 17.2048 90.0612 17.3199 90.0432 17.3018C90.0251 17.2838 90.0104 15.9636 90.0104 14.368V11.4671H88.7634H87.5164V19.1049ZM130.642 19.1049V26.7427H131.914H133.187V24.3568V21.9709L135.513 21.9487C138.045 21.9244 138.052 21.9237 138.898 21.5977C140.135 21.1205 141.183 20.0058 141.63 18.69C142.234 16.9144 141.97 14.8344 140.96 13.4191C140.449 12.704 139.579 12.0405 138.757 11.7409C138.025 11.4741 137.907 11.4671 134.144 11.4671H130.642V19.1049ZM114.444 13.7456C114.787 13.8958 115.175 14.2742 115.312 14.5914C115.478 14.9767 115.471 15.5238 115.296 15.9059C115.061 16.4199 114.488 16.8875 113.498 17.3736L113.008 17.6145L112.833 17.4124C112.599 17.1423 112.316 16.7113 112.138 16.355C111.539 15.1556 111.881 14.0883 112.991 13.6907C113.354 13.561 114.086 13.5886 114.444 13.7456ZM66.7278 14.0409C67.9535 14.3298 68.7058 15.3369 68.7058 16.6888C68.7058 17.9941 68.0089 18.982 66.8435 19.3288C66.5338 19.421 66.2951 19.4336 64.46 19.4553L62.4207 19.4794V16.7202V13.961L64.4081 13.9618C65.9956 13.9624 66.4623 13.9783 66.7278 14.0409ZM137.476 14.041C138.534 14.3142 139.177 14.9815 139.402 16.0394C139.679 17.3446 139.117 18.6381 138.048 19.1555C137.512 19.4152 137.389 19.4282 135.227 19.4545L133.187 19.4794V16.7202V13.961H135.177C136.799 13.961 137.224 13.9758 137.476 14.041ZM177.684 15.9612C175.988 16.2609 174.559 17.3168 173.819 18.8191C172.726 21.035 173.114 23.6393 174.786 25.3117C175.81 26.3358 177.082 26.8734 178.628 26.9357C180.348 27.0049 181.925 26.4441 182.925 25.4073L183.12 25.205L182.337 24.4281C181.907 24.0008 181.547 23.6445 181.538 23.6362C181.529 23.6279 181.396 23.7301 181.242 23.8632C180.354 24.6331 178.863 24.8721 177.576 24.4514C176.91 24.2337 176.256 23.6806 175.929 23.058C175.826 22.8615 175.741 22.6633 175.741 22.6175C175.741 22.5417 176.1 22.5341 179.683 22.5341H183.626L183.69 21.868C183.927 19.3954 182.814 17.2349 180.843 16.3425C179.977 15.9507 178.65 15.7905 177.684 15.9612ZM191.406 15.9888C190.764 16.1234 190.005 16.504 189.552 16.919C189.363 17.0924 189.194 17.2344 189.177 17.2344C189.16 17.2344 189.146 16.9772 189.146 16.6629V16.0913H187.899H186.652V21.417V26.7427H187.899H189.146L189.147 23.7681C189.148 20.5472 189.16 20.3867 189.432 19.8109C189.508 19.6514 189.69 19.3881 189.838 19.2258C190.371 18.6421 191.019 18.3408 191.874 18.2806L192.342 18.2476L192.356 17.0655L192.37 15.8835L192.122 15.8871C191.986 15.8892 191.664 15.9349 191.406 15.9888ZM204.797 15.9627C203.865 16.1268 202.91 16.5981 202.231 17.2294C201.715 17.7084 201.382 18.1424 201.08 18.7307C200.088 20.6599 200.248 23.0518 201.486 24.7943C201.798 25.2333 202.506 25.8955 202.977 26.1893C203.795 26.6982 204.908 26.9842 205.877 26.9341C206.979 26.8772 207.902 26.4714 208.721 25.6835L208.994 25.4213V26.082V26.7427H210.241H211.488V21.417V16.0913H210.241H208.994V16.7148C208.994 17.0577 208.98 17.3383 208.963 17.3383C208.946 17.3383 208.765 17.1841 208.562 16.9956C208.155 16.6192 207.316 16.1685 206.734 16.014C206.288 15.8957 205.323 15.8701 204.797 15.9627ZM74.1112 19.6447C74.1112 23.5447 74.12 23.6781 74.4254 24.4437C74.9326 25.7146 75.9541 26.5736 77.2848 26.8482C78.648 27.1295 80.0503 26.7933 81.0894 25.9363L81.4337 25.6523L81.4485 26.1845L81.4633 26.7167L82.7233 26.7307L83.9832 26.7446V21.418V16.0913H82.7103H81.4373V19.1803C81.4373 21.2636 81.4183 22.3589 81.3791 22.5446C81.177 23.4993 80.4027 24.3136 79.5103 24.5095C79.3404 24.5468 79.0063 24.5641 78.7049 24.5512C78.0494 24.5232 77.6648 24.3643 77.2878 23.9657C76.9754 23.6353 76.8372 23.3726 76.7059 22.8593C76.6117 22.4907 76.6052 22.2617 76.6052 19.2784V16.0913H75.3582H74.1112V19.6447ZM144.878 21.417V26.7427H146.151H147.424V21.417V16.0913H146.151H144.878V21.417ZM150.801 17.2599V18.4284L153.243 18.4419L155.684 18.4554L153.113 21.6768L150.541 24.8982V25.8205V26.7427H154.984H159.426V25.5741V24.4055L156.693 24.3921L153.961 24.3786L156.538 21.1574L159.115 17.9362V17.0137V16.0913H154.958H150.801V17.2599ZM162.336 17.2604V18.4294H164.756C166.229 18.4294 167.17 18.4484 167.159 18.4779C167.15 18.5045 166.002 19.9536 164.609 21.6981L162.076 24.8699V25.8063V26.7427H166.52H170.963L170.949 25.5866L170.935 24.4306L168.216 24.4171C166.552 24.4089 165.504 24.3848 165.514 24.3549C165.524 24.3281 166.683 22.8669 168.09 21.1077L170.649 17.9091V17.0002V16.0913H166.493H162.336V17.2604ZM195.069 21.417V26.7427H196.316H197.563V21.417V16.0913H196.316H195.069V21.417ZM6.69359 16.6819C6.28042 16.8743 6.01258 17.2466 5.95844 17.7036C5.9163 18.0595 6.02115 18.3863 6.26733 18.6659C6.6368 19.0857 7.08042 19.2261 7.57922 19.0811C8.27488 18.8789 8.66971 18.1713 8.4692 17.4862C8.24584 16.7229 7.41441 16.3463 6.69359 16.6819ZM33.7399 16.6237C33.4825 16.7093 33.0493 17.1596 32.9717 17.4223C32.7809 18.0683 33.0449 18.7008 33.629 18.9968C34.5564 19.4667 35.6655 18.6307 35.4616 17.6155C35.3893 17.2551 35.1501 16.9098 34.8514 16.7348C34.5794 16.5754 34.0457 16.5221 33.7399 16.6237ZM13.3144 16.8385C13.0143 16.9457 12.8088 17.1202 12.6438 17.4079C12.5151 17.6323 12.4899 17.7336 12.4895 18.0284C12.4887 18.5875 12.7168 18.9759 13.1905 19.222C13.4346 19.3488 13.9177 19.3704 14.2165 19.2677C14.5012 19.1699 14.8532 18.794 14.9594 18.4744C15.2973 17.457 14.3155 16.4807 13.3144 16.8385ZM27.2197 16.85C26.9591 16.9453 26.6386 17.2492 26.5127 17.5202C26.4527 17.6492 26.4158 17.8463 26.4154 18.0397C26.4143 18.6315 26.7668 19.1245 27.3057 19.2845C27.6403 19.3839 27.732 19.3843 28.054 19.2882C28.7437 19.0825 29.1117 18.3582 28.8965 17.6301C28.8122 17.3447 28.3818 16.9143 28.0964 16.83C27.8175 16.7476 27.4783 16.7553 27.2197 16.85ZM179.345 18.2519C180.298 18.4977 181.013 19.2279 181.271 20.2175C181.315 20.3846 181.338 20.5416 181.322 20.5664C181.307 20.5913 180.033 20.6117 178.492 20.6117H175.689V20.483C175.689 20.3069 175.908 19.7388 176.083 19.4622C176.426 18.9188 177.119 18.4354 177.819 18.2515C178.205 18.1502 178.951 18.1504 179.345 18.2519ZM93.9931 18.5603C94.9222 18.8722 95.6348 19.5887 95.9388 20.5167C96.1123 21.0466 96.1138 21.8348 95.9422 22.3362C95.7183 22.9905 95.2945 23.5411 94.7179 23.9267C94.1924 24.2782 93.7007 24.428 93.0759 24.427C92.2021 24.4255 91.477 24.1075 90.8623 23.456C90.3137 22.8744 90.0571 22.2257 90.0571 21.4198C90.0571 20.5693 90.3315 19.9142 90.9403 19.311C91.59 18.6672 92.1432 18.4387 93.0667 18.4329C93.5082 18.4301 93.6721 18.4526 93.9931 18.5603ZM206.895 18.5593C207.811 18.8669 208.533 19.5813 208.845 20.4908C209.006 20.9576 209.018 21.8365 208.871 22.2743C208.633 22.9814 208.222 23.5261 207.625 23.9252C206.445 24.7146 204.913 24.5747 203.883 23.5831C202.928 22.6646 202.694 21.2716 203.288 20.0401C203.52 19.5594 204.124 18.9692 204.638 18.7219C205.14 18.4806 205.324 18.441 205.971 18.4346C206.415 18.4303 206.575 18.4519 206.895 18.5593ZM113.995 21.9513L115.859 23.7845L115.73 23.8925C115.166 24.3611 113.933 24.6601 112.83 24.5954C111.578 24.522 110.744 24.0918 110.367 23.3248C110.208 23.0026 110.196 22.9409 110.196 22.4573C110.196 21.9986 110.213 21.9005 110.338 21.6334C110.524 21.2356 110.738 20.9726 111.099 20.6948C111.403 20.4606 112.042 20.0839 112.098 20.1057C112.116 20.1125 112.969 20.943 113.995 21.9513ZM3.12039 22.9108C3.1471 22.9466 3.21069 23.277 3.26172 23.6451C3.92111 28.401 6.75657 32.8864 10.8597 35.6643C11.5908 36.1592 13.1476 37.0014 13.9264 37.3232C16.9242 38.5621 20.1637 38.9602 23.3913 38.4865C24.7214 38.2913 26.3239 37.8448 27.5737 37.3212C28.3643 36.9899 29.8209 36.201 30.5818 35.6919C34.7569 32.8985 37.5451 28.4748 38.2527 23.5213C38.3394 22.9147 38.353 22.8721 38.4587 22.8755C38.521 22.8776 38.8233 22.8838 39.1305 22.8894C39.4377 22.8949 39.7207 22.9194 39.7594 22.944C39.8179 22.9811 39.8114 23.1147 39.7207 23.7402C39.0193 28.578 36.5078 32.9389 32.6487 36.0199C31.4609 36.9682 29.6149 38.0612 28.1825 38.6642C25.808 39.6639 23.3756 40.1486 20.7388 40.1473C16.9227 40.1455 13.4057 39.0932 10.2046 36.9954C5.49165 33.9068 2.36347 28.8482 1.70526 23.251C1.66359 22.8966 1.64624 22.9054 2.43517 22.8826C2.72094 22.8744 2.98109 22.8627 3.01336 22.8567C3.04557 22.8507 3.09373 22.8751 3.12039 22.9108ZM22.1377 25.314C22.2884 25.4196 22.3784 25.7031 22.3146 25.8711C22.2468 26.0494 22.0133 26.2231 21.8415 26.2231C21.6697 26.2231 21.4362 26.0494 21.3684 25.8711C21.3045 25.7031 21.3945 25.4196 21.5453 25.314C21.6885 25.2137 21.9945 25.2137 22.1377 25.314ZM15.4398 25.6906L15.4247 26.0932L14.6323 26.1076L13.8399 26.1219V28.2249V30.3278H13.4243H13.0086V28.2249V26.1219L12.2163 26.1076L11.4239 26.0932L11.4087 25.6906L11.3936 25.2879H13.4243H15.455L15.4398 25.6906ZM25.9202 26.8861C26.1949 27.0274 26.3819 27.2311 26.5279 27.5481C26.6423 27.7964 26.6476 27.8629 26.6476 29.0548V30.3018H26.2319H25.8163L25.7903 29.1328C25.7705 28.2452 25.7466 27.937 25.6906 27.8528C25.4041 27.4217 24.6457 27.4755 24.3614 27.9472C24.2679 28.1025 24.2559 28.2293 24.2408 29.2237L24.2242 30.3278H23.8122H23.4002V28.5612V26.7947H23.8159H24.2315V26.979V27.1634L24.4561 27.0089C24.5796 26.9239 24.7608 26.83 24.8587 26.8001C25.1297 26.7176 25.6793 26.762 25.9202 26.8861ZM29.9813 26.9756C30.1947 27.0811 30.3816 27.1995 30.3967 27.2386C30.4117 27.2779 30.325 27.4249 30.2039 27.5655L29.9838 27.821L29.7347 27.6918C29.3058 27.4693 28.5975 27.4783 28.5095 27.7075C28.4529 27.8551 28.661 27.9812 29.1858 28.1169C30.0641 28.3441 30.3841 28.549 30.5084 28.9639C30.5927 29.245 30.5851 29.3819 30.4719 29.6264C30.1263 30.3728 28.9473 30.6046 28.0144 30.1097C27.8517 30.0233 27.6797 29.9098 27.6321 29.8573C27.5514 29.7681 27.5526 29.7524 27.6502 29.6162C27.7076 29.5361 27.8163 29.4128 27.8918 29.3423C28.0063 29.2355 28.0439 29.2248 28.1177 29.2781C28.5056 29.5577 29.1715 29.6725 29.4793 29.5129C29.6069 29.4467 29.6659 29.3773 29.6771 29.2807C29.6971 29.1082 29.5585 29.0028 29.1676 28.8934C27.9237 28.5452 27.6616 28.3519 27.6613 27.7819C27.661 27.28 27.992 26.933 28.622 26.7744C28.6792 26.76 28.9211 26.7562 29.1596 26.766C29.5346 26.7814 29.6456 26.8097 29.9813 26.9756ZM16.5038 27.2493C16.5774 27.4994 16.7155 27.9786 16.8105 28.3142C16.9056 28.6499 16.9979 28.9246 17.0155 28.9247C17.0331 28.9248 17.184 28.4447 17.3508 27.8578L17.6541 26.7907L18.0462 26.8057L18.4382 26.8206L18.7443 27.9001C18.9126 28.4939 19.0585 28.9715 19.0686 28.9614C19.0786 28.9514 19.1821 28.6176 19.2986 28.2196C19.4151 27.8217 19.5566 27.3383 19.613 27.1454L19.7156 26.7947H20.155C20.3967 26.7947 20.5945 26.809 20.5945 26.8264C20.5945 26.8513 19.975 28.8585 19.5861 30.094L19.5207 30.3018H19.0617C18.6174 30.3018 18.6015 30.2977 18.5629 30.1719C18.541 30.1005 18.414 29.6924 18.2806 29.2652L18.0382 28.4882L17.8919 28.9534C17.8115 29.2092 17.6845 29.6232 17.6097 29.8732L17.4737 30.3278H17.0368C16.7965 30.3278 16.5876 30.308 16.5726 30.2838C16.541 30.2326 15.5766 27.1505 15.5256 26.9376L15.4913 26.7947H15.9306H16.3698L16.5038 27.2493ZM22.2571 28.5612V30.3278H21.8415H21.4258V28.5612V26.7947H21.8415H22.2571V28.5612Z" fill="white"/>
</svg>
