<svg width="24" height="40" viewBox="0 0 24 40" fill="none" xmlns="http://www.w3.org/2000/svg">
<path d="M23.1117 18.4392L5.31122 0.639019C4.89951 0.22699 4.34993 0 3.76391 0C3.1779 0 2.62831 0.22699 2.21661 0.639019L0.905727 1.94958C0.0527256 2.80355 0.0527256 4.19151 0.905727 5.04419L15.8532 19.9917L0.889141 34.9558C0.477437 35.3678 0.250122 35.9171 0.250122 36.5028C0.250122 37.0891 0.477437 37.6384 0.889141 38.0508L2.20002 39.361C2.61205 39.773 3.16132 40 3.74733 40C4.33334 40 4.88293 39.773 5.29463 39.361L23.1117 21.5445C23.5244 21.1312 23.7511 20.5793 23.7498 19.9927C23.7511 19.4037 23.5244 18.8522 23.1117 18.4392Z" fill="#FAFAFC"/>
</svg>
