<svg width="24" height="40" viewBox="0 0 24 40" fill="none" xmlns="http://www.w3.org/2000/svg">
<path d="M0.888222 18.4392L18.6887 0.639019C19.1004 0.22699 19.65 0 20.236 0C20.822 0 21.3716 0.22699 21.7833 0.639019L23.0942 1.94958C23.9472 2.80355 23.9472 4.19151 23.0942 5.04419L8.1467 19.9917L23.1108 34.9558C23.5225 35.3678 23.7498 35.9171 23.7498 36.5028C23.7498 37.0891 23.5225 37.6384 23.1108 38.0508L21.7999 39.361C21.3879 39.773 20.8386 40 20.2526 40C19.6666 40 19.117 39.773 18.7053 39.361L0.888222 21.5445C0.475542 21.1312 0.248878 20.5793 0.250179 19.9927C0.248878 19.4037 0.475542 18.8522 0.888222 18.4392Z" fill="#FAFAFC"/>
</svg>
